<svg xmlns="http://www.w3.org/2000/svg" width="14.693" height="15.405" viewBox="0 0 14.693 15.405">
  <g id="noun-about-us-4146551" transform="translate(-1.521 -4.204)">
    <g id="Group_6" data-name="Group 6" transform="translate(0 -273.187)">
      <path id="Path_4" data-name="Path 4" d="M6.091,286.679a5.819,5.819,0,0,0-4.525,4.409c-.147.628.081.812.363.9a30.573,30.573,0,0,0,6.938.809,30.572,30.572,0,0,0,6.938-.809c.282-.087.509-.271.363-.9a5.82,5.82,0,0,0-4.525-4.409l-2.551,2.136a.349.349,0,0,1-.449,0Z" fill="#f4eee0"/>
      <path id="Path_5" data-name="Path 5" d="M8.867,277.391a3.886,3.886,0,0,0-3.874,3.915v.265a3.874,3.874,0,1,0,7.747,0v-.265A3.886,3.886,0,0,0,8.867,277.391Z" fill="#f4eee0" fill-rule="evenodd"/>
    </g>
  </g>
</svg>
