<svg xmlns="http://www.w3.org/2000/svg" width="57.316" height="60.093" viewBox="0 0 57.316 60.093">
  <g id="noun-about-us-4146551" transform="translate(-1.521 -4.204)">
    <g id="Group_6" data-name="Group 6" transform="translate(1.52 4.204)">
      <path id="Path_4" data-name="Path 4" d="M19.351,286.679C9.725,289.2,3.665,295.3,1.7,303.878c-.572,2.45.314,3.167,1.415,3.507,7.566,2.329,21.569,3.156,27.064,3.156s19.5-.827,27.064-3.156c1.1-.339,1.987-1.057,1.415-3.507-1.965-8.574-8.027-14.679-17.652-17.2l-9.95,8.332a1.362,1.362,0,0,1-1.751,0Z" transform="translate(-1.52 -250.448)"/>
      <path id="Path_5" data-name="Path 5" d="M20.1,277.391A15.159,15.159,0,0,0,4.993,292.663V293.7a15.112,15.112,0,1,0,30.222,0v-1.034A15.159,15.159,0,0,0,20.1,277.391Z" transform="translate(8.553 -277.391)" fill-rule="evenodd"/>
    </g>
  </g>
</svg>
