<svg xmlns="http://www.w3.org/2000/svg" width="87.5" height="87.531" viewBox="0 0 87.5 87.531">
  <g id="contact" transform="translate(-6.25 -6.25)">
    <g id="Group_8" data-name="Group 8">
      <path id="Path_13" data-name="Path 13" d="M45.969,74.094a3.112,3.112,0,0,0-4.406,0l-4.031,4.031L21.907,62.5l4.031-4.031a3.112,3.112,0,0,0,0-4.406l-8.094-8.094a3.112,3.112,0,0,0-4.406,0l-3.5,3.5a12.512,12.512,0,0,0-3.656,8.844v2.156a12.513,12.513,0,0,0,3.656,8.844L30.75,90.125a12.512,12.512,0,0,0,8.844,3.656H41.75a12.513,12.513,0,0,0,8.844-3.656l3.5-3.5a3.112,3.112,0,0,0,0-4.406Z" fill="#f4eee0"/>
      <path id="Path_14" data-name="Path 14" d="M93.531,64.094A6.54,6.54,0,0,0,93.75,62.5V19.344L66.375,36.938Z" fill="#f4eee0"/>
      <path id="Path_15" data-name="Path 15" d="M87.5,6.25h-75A6.268,6.268,0,0,0,6.25,12.5v.063A2.972,2.972,0,0,1,7.938,13L50,40.031,92.062,13a3.037,3.037,0,0,1,1.688-.437V12.5A6.268,6.268,0,0,0,87.5,6.25Z" fill="#f4eee0"/>
      <path id="Path_16" data-name="Path 16" d="M15.625,38.781a9.29,9.29,0,0,1,6.625,2.75l3.406,3.406,8-8L6.25,19.343V44.281L9,41.531a9.29,9.29,0,0,1,6.625-2.75Z" fill="#f4eee0"/>
      <path id="Path_17" data-name="Path 17" d="M51.688,46.375a3.037,3.037,0,0,1-1.687.5,2.966,2.966,0,0,1-1.687-.5l-9.281-5.969-8.937,8.938.281.281A9.382,9.382,0,0,1,30.751,62.5L37,68.75h1.281a9.383,9.383,0,0,1,5.5-1.844,9.172,9.172,0,0,1,5.5,1.844h38.25a6.541,6.541,0,0,0,1.594-.219L61,40.406l-9.281,5.969Z" fill="#f4eee0"/>
    </g>
  </g>
</svg>
