<svg xmlns="http://www.w3.org/2000/svg" width="90" height="89.999" viewBox="0 0 90 89.999">
  <g id="noun-home-7270542" transform="translate(-5.001 -5.001)">
    <path id="Path_7" data-name="Path 7" d="M42.352,68.09V95H7.907a2.914,2.914,0,0,1-2.055-.855l-.008.008A2.934,2.934,0,0,1,5,92.09V45.07A2.939,2.939,0,0,1,6.208,42.7L48.3,5.633a2.608,2.608,0,0,1,3.4,0L93.794,42.7A2.934,2.934,0,0,1,95,45.07V92.093A2.921,2.921,0,0,1,92.095,95H57.65V68.089a3.6,3.6,0,0,0-3.6-3.6h-8.1a3.6,3.6,0,0,0-3.594,3.6Z" fill="#f4eee0" fill-rule="evenodd"/>
  </g>
</svg>
