<svg xmlns="http://www.w3.org/2000/svg" width="93.52" height="94.145" viewBox="0 0 93.52 94.145">
  <g id="ML" transform="translate(-3.238 -2.93)">
    <path id="Path_8" data-name="Path 8" d="M3.238,93.227v.41a2.921,2.921,0,0,0,1.547,2.3,7.955,7.955,0,0,0,4.281,1.137H90.929a7.954,7.954,0,0,0,4.281-1.137,2.912,2.912,0,0,0,1.547-2.3v-.41Zm38.973-1.992H57.789L56.1,89.289H43.9ZM78.227,28.876a5.6,5.6,0,0,1-2.156,4.977c4.277,3.316,1.664,10.324-2.926,11.871a13.9,13.9,0,0,1-.023,2.5c-.668,4.3-4.207,4.668-6,4.59-.047,2.719-.906,6.016-6.332,5.836-1.051,4.43-7.512,6.121-10.789,1.1-3.277,5.023-9.738,3.332-10.789-1.1-5.426.18-6.285-3.117-6.332-5.836-1.793.082-5.332-.285-6-4.59a14.268,14.268,0,0,1-.023-2.5c-4.59-1.547-7.2-8.555-2.926-11.871a5.6,5.6,0,0,1-2.156-4.977H15.36a2.312,2.312,0,0,0-2.3,2.3v43.5a2.352,2.352,0,0,0,.117.734,3.68,3.68,0,0,1,1.019-.137H85.821a3.538,3.538,0,0,1,1.02.137,2.261,2.261,0,0,0,.117-.734V31.184a2.312,2.312,0,0,0-2.3-2.3ZM38.411,23.77a.8.8,0,0,0-1.137,1.137A.8.8,0,0,0,38.411,23.77Zm24.316,9.512a.8.8,0,0,1-1.137,1.137A.8.8,0,0,1,62.727,33.282Zm-24.316,0a.8.8,0,0,1-1.137,1.137A.8.8,0,0,1,38.411,33.282Zm-.57-2.227a2.794,2.794,0,1,0,2.609,3.789H49V57.383a5.394,5.394,0,0,1-2.844,3.16c-2.383.965-5.043-.668-5.1-2.941a.989.989,0,0,0-1.09-.992c-4.148.406-4.918-1.578-5.066-3.062l-.059-1.586a6.606,6.606,0,0,1,2.023-1.723,3.67,3.67,0,0,1,2.309-.391.994.994,0,0,0,.32-1.961c-2.437-.4-4.609.859-6.254,2.9-1.039.105-3.934.16-4.4-2.871a14.352,14.352,0,0,1,.063-2.754.985.985,0,0,0-.82-1.176c-3.594-.5-6.727-7.207-1.777-9.219a.994.994,0,0,0,0-1.84c-4.672-1.9-2.18-8.289,1.527-9.168,1.543-.367,3.273.293,4.867,2.414a.991.991,0,1,0,1.586-1.187c-1.734-2.316-3.648-3.27-5.461-3.316a12.033,12.033,0,0,1,.016-1.891c.531-3.414,4.121-2.918,4.7-2.836a.913.913,0,0,0,.777-.141c.75-.492.477-1.484.59-2.652.133-1.375.809-3.184,4.211-3.113A8.582,8.582,0,0,0,41.8,15.884a.994.994,0,0,0,1.406-1.406c-4.3-4.3-1.324-7.832,1.789-7.6,1.5.113,3.066,1.129,4.008,3.434l0,16.574H47.024l-3.254-3.254a.991.991,0,0,0-.7-.293H40.454a2.8,2.8,0,1,0,0,1.988h2.2L45.9,28.575a.994.994,0,0,0,.711.3H49v3.981H40.45a2.789,2.789,0,0,0-2.609-1.8Zm23.75,12.879A.8.8,0,0,1,62.728,42.8.8.8,0,0,1,61.591,43.934Zm.57,2.227a2.794,2.794,0,1,0-2.609-3.789h-2.2l-3.246-3.246a.994.994,0,0,0-.711-.3H51v-3.98h8.551a2.8,2.8,0,1,0,0-1.988H51.005L51,10.317c.945-2.3,2.508-3.324,4.008-3.434,3.113-.234,6.086,3.3,1.789,7.6A.994.994,0,0,0,58.2,15.888a8.581,8.581,0,0,0,2.688-4.848c3.406-.07,4.078,1.738,4.211,3.113.113,1.168-.164,2.16.59,2.652a.907.907,0,0,0,.773.141c.5-.035,4.16-.648,4.7,2.836a12.527,12.527,0,0,1,.016,1.891c-1.809.047-3.727,1-5.461,3.316A.991.991,0,1,0,67.3,26.176c4.129-5.5,8.8-.77,8.953,2.949a3.779,3.779,0,0,1-2.555,3.8.994.994,0,0,0,0,1.84c4.941,2.008,1.824,8.668-1.719,9.211a.985.985,0,0,0-.887.848,22.343,22.343,0,0,1,.07,3.09c-.473,3.035-3.363,2.98-4.4,2.871-1.645-2.035-3.816-3.293-6.254-2.9a.994.994,0,0,0,.32,1.961,3.674,3.674,0,0,1,2.309.391,6.549,6.549,0,0,1,2.023,1.723L65.1,53.551c-.145,1.48-.914,3.469-5.066,3.063a.989.989,0,0,0-1.09.992c-.059,2.273-2.723,3.91-5.1,2.941A5.405,5.405,0,0,1,51,57.387l0-16.57h1.984l3.254,3.254a1.008,1.008,0,0,0,.7.293h2.613a2.789,2.789,0,0,0,2.609,1.8Zm12.66-35.035v2.738a.994.994,0,0,0,1.988,0V11.126A.994.994,0,0,0,74.821,11.126ZM73.579,7.892H70.841a.994.994,0,0,0,0,1.988h2.738a.994.994,0,0,0,0-1.988Zm7.211,0H78.052a.994.994,0,0,0,0,1.988H80.79a.994.994,0,0,0,0-1.988Zm-5.969-3.98V6.649a.994.994,0,0,0,1.988,0V3.911A.994.994,0,0,0,74.821,3.911Zm-57.434,17.7a.994.994,0,0,1,1.988,0v2.738a.994.994,0,0,1-1.988,0Zm-1.242-3.234H13.407a.994.994,0,0,0,0,1.988h2.738A.994.994,0,0,0,16.145,18.372Zm7.211,0H20.618a.994.994,0,0,0,0,1.988h2.738A.994.994,0,0,0,23.356,18.372ZM17.387,14.4a.994.994,0,0,1,1.988,0v2.738a.994.994,0,0,1-1.988,0ZM4.117,91.235l7.477-10.992c.836-1.227,1.414-2.973,2.59-2.973H85.812c1.176,0,1.758,1.746,2.594,2.973l7.477,10.992H60.414l-3.062-3.527a.988.988,0,0,0-.8-.4l-13.1,0v0a.99.99,0,0,0-.75.344l-3.113,3.586Z" fill="#f4eee0" fill-rule="evenodd"/>
  </g>
</svg>
