<svg xmlns="http://www.w3.org/2000/svg" width="98" height="98" viewBox="0 0 98 98">
  <g id="skills" transform="translate(-1.001 -1)">
    <path id="Path_9" data-name="Path 9" d="M68.145,32.77l7.1,7.1a14.344,14.344,0,0,1,0,20.258l-7.1,7.1a2.3,2.3,0,0,1-3.25-3.25l7.1-7.1a9.761,9.761,0,0,0,0-13.766l-7.1-7.1a2.3,2.3,0,0,1,3.25-3.25Zm-46.4,51.492A44.5,44.5,0,1,0,10.407,70.137a2.295,2.295,0,0,1-4.09,2.082A48.439,48.439,0,0,1,2.353,61.438,49.042,49.042,0,1,1,18.916,87.875l1.133,7.7a2.294,2.294,0,1,1-4.539.664L13.459,82.294a2.293,2.293,0,0,1,1.938-2.6,2.372,2.372,0,0,1,.332-.023v0H29.034C19.655,72.829,13.261,61.8,13.261,50A36.746,36.746,0,1,1,50.007,86.743a35.024,35.024,0,0,1-17.379-4.754,2.3,2.3,0,0,1-2.3,2.27H21.753ZM58.282,27.946,46.145,73.239a2.293,2.293,0,0,1-4.43-1.187L53.852,26.758a2.293,2.293,0,0,1,4.43,1.188ZM35.1,63.981a2.3,2.3,0,1,1-3.25,3.25l-7.1-7.1a14.344,14.344,0,0,1,0-20.258l7.1-7.1a2.3,2.3,0,1,1,3.25,3.25l-7.1,7.1a9.761,9.761,0,0,0,0,13.766l7.1,7.1Z" fill="#f4eee0" fill-rule="evenodd"/>
  </g>
</svg>
